<svg xmlns="http://www.w3.org/2000/svg" version="1.1" xmlns:xlink="http://www.w3.org/1999/xlink" xmlns:svgjs="http://svgjs.dev/svgjs" width="1000" height="1000" viewBox="0 0 1000 1000"><rect width="1000" height="1000" fill="#ffffff"></rect><g transform="matrix(0.7,0,0,0.7,149.57575757575756,282.1265587044535)"><svg viewBox="0 0 396 247" data-background-color="#003366" preserveAspectRatio="xMidYMid meet" height="623" width="1000" xmlns="http://www.w3.org/2000/svg" xmlns:xlink="http://www.w3.org/1999/xlink"><g id="tight-bounds" transform="matrix(1,0,0,1,0.2400000000000091,-0.09999999999999432)"><svg viewBox="0 0 395.52 247.2" height="247.2" width="395.52"><g><svg></svg></g><g><svg viewBox="0 0 395.52 247.2" height="247.2" width="395.52"><g transform="matrix(1,0,0,1,75.54432000000001,81.42571982378854)"><svg viewBox="0 0 244.43135999999996 84.3485603524229" height="84.3485603524229" width="244.43135999999996"><g><svg viewBox="0 0 244.43135999999996 84.3485603524229" height="84.3485603524229" width="244.43135999999996"><g><svg viewBox="0 0 244.43135999999996 84.3485603524229" height="84.3485603524229" width="244.43135999999996"><g><svg viewBox="0 0 244.43135999999996 84.3485603524229" height="84.3485603524229" width="244.43135999999996"><g><svg viewBox="0 0 244.43135999999996 84.3485603524229" height="84.3485603524229" width="244.43135999999996"><g><svg viewBox="0 0 244.43135999999996 84.3485603524229" height="84.3485603524229" width="244.43135999999996"><g transform="matrix(1,0,0,1,0,0)"><svg width="244.43135999999996" viewBox="1.6600000858306885 -34.029998779296875 99.75 34.41999816894531" height="84.3485603524229" data-palette-color="#ffffff"><path d="M27.59-7.62L25.39 0.29Q24.02 0.2 22.09 0.1 20.17 0 18.6 0L18.6 0 1.81 0 1.66-2.44 4.79-3.22Q4.88-3.47 4.96-4.49 5.03-5.52 5.08-7.15 5.13-8.79 5.13-10.74L5.13-10.74 5.13-17.87Q5.13-19.92 5.08-21.56 5.03-23.19 4.96-24.22 4.88-25.24 4.79-25.44L4.79-25.44 1.66-26.22 1.81-28.66 16.85-28.66Q17.82-28.66 19.21-28.69 20.61-28.71 21.95-28.78 23.29-28.86 24.22-28.91L24.22-28.91 25.54-21.68 22.71-21.29 20.9-25.59Q20.26-25.73 19.75-25.78 19.24-25.83 18.65-25.83L18.65-25.83 14.94-25.83Q14.01-25.83 13.16-25.81 12.3-25.78 11.77-25.68L11.77-25.68Q11.77-25.29 11.74-24.51 11.72-23.73 11.69-22.51 11.67-21.29 11.67-19.63L11.67-19.63 11.67-9.38Q11.67-7.81 11.69-6.59 11.72-5.37 11.74-4.57 11.77-3.76 11.77-3.32L11.77-3.32Q12.65-3.17 13.62-3.13 14.6-3.08 16.06-3.08L16.06-3.08 18.65-3.08Q19.92-3.08 20.53-3.1 21.14-3.13 21.46-3.17 21.78-3.22 22.12-3.27L22.12-3.27 24.8-8.15 27.59-7.62ZM21.88-9.77L19.19-9.77 18.7-13.04Q18.36-13.09 17.63-13.11 16.89-13.13 15.92-13.13L15.92-13.13 13.33-13.13Q12.5-13.13 11.74-13.09 10.99-13.04 10.6-12.99L10.6-12.99 10.6-16.46Q10.99-16.41 11.74-16.36 12.5-16.31 13.33-16.31L13.33-16.31 15.92-16.31Q16.89-16.31 17.63-16.33 18.36-16.36 18.7-16.36L18.7-16.36 19.19-19.63 21.88-19.63 21.88-9.77ZM42.19 0L29.2 0 29.05-2.29 32.22-3.08Q32.27-3.61 32.35-4.96 32.42-6.3 32.47-8.06 32.52-9.81 32.52-11.47L32.52-11.47 32.52-17.63Q32.52-19.34 32.49-21 32.47-22.66 32.44-24.19 32.42-25.73 32.37-26.98 32.32-28.22 32.22-29.05L32.22-29.05 28.61-29.54 28.51-31.64 37.84-34.03 39.21-33.2Q39.11-31.15 39.06-29.22 39.01-27.29 38.99-24.85 38.96-22.41 38.96-18.9L38.96-18.9 38.91-11.72Q38.91-8.3 38.96-5.93 39.01-3.56 39.11-3.08L39.11-3.08 42.28-2.29 42.19 0ZM56.1 0.2L53.95 0.2 44.97-18.41 42.67-19.19 42.77-21.44 55.27-21.44 55.41-19.19 52.39-18.41 57.91-6.49 56.49-6.49 61.62-18.41 58.59-19.19 58.74-21.44 67.57-21.44 67.72-19.19 65.42-18.41 56.1 0.2ZM81.44 0L68.35 0 68.21-2.29 71.48-3.08Q71.53-3.27 71.57-3.98 71.62-4.69 71.67-5.74 71.72-6.79 71.72-7.96L71.72-7.96 71.77-11.62Q71.77-13.09 71.67-14.23 71.57-15.38 71.33-16.65L71.33-16.65 68.06-17.33 68.06-19.53 77.04-21.73 78.36-20.9Q78.22-19.34 78.14-17.75 78.07-16.16 78.07-14.16L78.07-14.16 78.07-8.01Q78.07-6.4 78.14-4.93 78.22-3.47 78.36-3.08L78.36-3.08 81.58-2.29 81.44 0ZM74.99-25.73L74.99-25.73Q72.99-25.73 71.89-26.93 70.79-28.13 70.79-29.69L70.79-29.69Q70.79-31.25 71.89-32.45 72.99-33.64 74.99-33.64L74.99-33.64Q76.99-33.64 78.04-32.45 79.09-31.25 79.09-29.69L79.09-29.69Q79.09-28.13 78.04-26.93 76.99-25.73 74.99-25.73ZM91.69 0.39L91.69 0.39Q89.64 0.39 87.64-0.07 85.63-0.54 84.22-1.27L84.22-1.27 83.97-7.03 87.15-7.03 88.17-3.52Q90.03-2.39 92.03-2.39L92.03-2.39Q93.54-2.39 94.33-3 95.11-3.61 95.11-4.64L95.11-4.64Q95.11-5.71 94.25-6.47 93.4-7.23 90.76-8.25L90.76-8.25Q87.15-9.57 85.73-11.13 84.32-12.7 84.32-15.04L84.32-15.04Q84.32-17.04 85.54-18.58 86.76-20.12 88.95-20.97 91.15-21.83 94.03-21.83L94.03-21.83Q95.6-21.83 97.21-21.53 98.82-21.24 99.89-20.75L99.89-20.75 100.43-15.09 97.3-15.09 96.23-18.55Q95.74-18.85 95.03-19.02 94.33-19.19 93.69-19.19L93.69-19.19Q92.23-19.19 91.35-18.55 90.47-17.92 90.47-16.85L90.47-16.85Q90.47-15.72 91.54-14.92 92.62-14.11 95.45-12.94L95.45-12.94Q98.67-11.62 100.04-10.13 101.41-8.64 101.41-6.45L101.41-6.45Q101.41-3.37 98.7-1.49 95.99 0.39 91.69 0.39Z" opacity="1" transform="matrix(1,0,0,1,0,0)" fill="#000000" class="undefined-text-0" data-fill-palette-color="primary" id="text-0"></path></svg></g></svg></g></svg></g></svg></g></svg></g></svg></g></svg></g><path d="M179.715 75.426L179.715 21.095 384.726 21.095 384.726 226.105 179.715 226.105 179.715 171.774 187.322 171.774 187.322 218.499 377.119 218.499 377.119 28.701 187.322 28.701 187.322 75.426Z" fill="#000000" stroke="transparent" data-fill-palette-color="primary"></path></svg></g><defs></defs></svg><rect width="395.52" height="247.2" fill="none" stroke="none" visibility="hidden"></rect></g></svg></g></svg>